<?xml version="1.0" encoding="UTF-8"?>
<svg width="151px" height="79px" viewBox="0 0 151 79" version="1.1" xmlns="http://www.w3.org/2000/svg" xmlns:xlink="http://www.w3.org/1999/xlink">
    <title>Large/Logo/Light</title>
    <g id="UI-design" stroke="none" stroke-width="1" fill="none" fill-rule="evenodd">
        <g id="D---HOME" transform="translate(-50.000000, -25.000000)">
            <g id="Large/Logo/Light" transform="translate(50.000000, 25.000000)">
                <g id="Logo_Renovia_RGB">
                    <g id="Group" transform="translate(52.936702, 3.417521)" fill="#FFFFFF">
                        <g transform="translate(0.175168, 0.033833)" id="Shape">
                            <path d="M22.0145695,36.1683298 L0.015106853,36.1683298 L3.66146955,14.1445536 L16.0167172,0.0185890601 L35.4881559,13.3322288 L35.4881559,36.1683298 L28.32017,36.1683298 L28.32017,25.7379307 L22.0145695,25.7379307 L22.0145695,36.1683298 Z M22.0145695,14.2988169 L28.32017,14.7284308 L28.32017,23.9686567 L22.0145695,23.5386556 L22.0145695,14.2988169 Z M10.5234338,13.3848118 L16.8290343,13.8216977 L16.8290343,23.436717 L10.5234338,23.0000462 L10.5234338,13.3848118 Z"></path>
                        </g>
                    </g>
                    <g id="Group" transform="translate(65.166059, 5.569032)" fill="#99C221" fill-opacity="0.7">
                        <g transform="translate(0.074455, 0.119893)" id="Path">
                            <polygon points="16.1915251 19.9699003 18.124339 20.12326 18.1510997 10.8651335 7.17100733 9.51820122 7.1563321 0.0154908835 23.3595111 11.0946568 23.3595111 33.9307578 16.1915251 33.9307578 16.1915251 23.5003587 9.88592463 23.5003587 9.88592463 33.9307578 4.9390777 33.9307578 5.9167069 25.9110414 0.00345299498 25.0713494 0.473491937 20.9064102 4.70038942 21.1991449 4.70038942 19.0580466 9.88592463 19.4695017 9.88592463 21.3010835 16.1915251 21.7310846"></polygon>
                        </g>
                    </g>
                    <g id="Group" transform="translate(65.166059, 0.010961)" fill="#99C221" fill-opacity="0.7">
                        <g transform="translate(0.074455, 0.041004)" id="Path">
                            <polygon points="0.00345299498 30.7083098 0.717359708 24.37895 18.124339 25.7602204 18.1510997 16.5020939 7.17100733 15.1551616 7.14769961 0.0340799436 24.7631535 16.4548467 28.1781656 40.7023393 16.1915251 43.8766365 16.1915251 29.1373191 9.88592463 29.1373191 9.88592463 45.5466398 4.02014941 47.0996008 5.9167069 31.5480017"></polygon>
                        </g>
                    </g>
                    <g id="Group" transform="translate(0.062716, 42.324022)" fill="#FFFFFF">
                        <g transform="translate(0.167598, 0.058349)" id="Shape">
                            <path d="M16.1381462,5.53576333 L6.47176146,5.53576333 L6.47176146,10.3860082 L16.1381462,10.3860082 C16.9503522,10.3860082 17.5214852,10.1997085 17.8450732,9.82227005 C18.1686613,9.44483164 18.3336912,8.76173264 18.3336912,7.77458603 C18.3336912,6.99228847 18.1597626,6.42371138 17.8135234,6.06804827 C17.4664752,5.71319164 16.9050499,5.53576333 16.1381462,5.53576333 Z M16.3662758,0.589545891 C19.5244953,0.589545891 21.6698843,1.05811793 22.8105322,1.99122956 C23.9519892,2.92434118 24.5223131,4.62603999 24.5223131,7.09632598 C24.5223131,8.8077027 24.2666786,10.085993 23.7602632,10.9182931 C23.2538479,11.7554322 22.4003843,12.3151378 21.2087713,12.5974101 C22.2588146,12.8482293 23.0483695,13.2893806 23.5733911,13.9168316 C24.0976038,14.5491216 24.362946,15.3685178 24.362946,16.3742137 L24.362946,20.4373221 L18.2786813,20.4373221 L18.2786813,17.4113628 C18.2786813,16.6290653 18.095854,16.0919414 17.7261546,15.8007977 C17.3572642,15.504815 16.6267642,15.3596464 15.5403172,15.3596464 L6.47176146,15.3596464 L6.47176146,20.4373221 L0.373744224,20.4373221 L0.373744224,0.589545891 L16.3662758,0.589545891 Z M40.7793779,15.7733769 L45.553111,15.7733769 L45.553111,15.9870974 C45.553111,17.6299223 45.0507405,18.8130465 44.0427636,19.5364701 C43.0339778,20.2598937 41.3723531,20.6236218 39.0538445,20.6236218 L34.3440201,20.6236218 C32.2261362,20.6236218 30.6065779,20.1824705 29.4877721,19.2993614 C28.3697753,18.4122198 27.80835,17.1387684 27.80835,15.4685228 L27.80835,11.6554271 C27.80835,9.89485436 28.3697753,8.54720568 29.4877721,7.61490055 C30.6065779,6.68178893 32.2172375,6.21402338 34.3213689,6.21402338 L39.0538445,6.21402338 C41.1757733,6.21402338 42.7961406,6.67775647 43.9100925,7.60602914 C45.0240445,8.5343018 45.5806159,9.88517645 45.5806159,11.6554271 L45.5806159,14.6539656 L32.8603688,14.6539656 C32.8603688,14.6999356 32.8563239,14.762842 32.8466163,14.8539757 C32.8377176,14.9410768 32.8328638,14.9999508 32.8328638,15.0273715 C32.8328638,15.8370898 33.0658472,16.4145383 33.5358589,16.7653625 C34.0058706,17.1153802 34.7776281,17.2928085 35.8592213,17.2928085 L37.9860039,17.2928085 C39.0813495,17.2928085 39.7932433,17.1879645 40.126539,16.9750505 C40.4549809,16.7605235 40.6742118,16.3596969 40.7793779,15.7733769 Z M32.8603688,11.5594545 L40.6742118,11.5594545 L40.6742118,11.5054195 C40.6742118,10.8408699 40.4638795,10.3682654 40.0399792,10.0948645 C39.6152698,9.8174311 38.8758711,9.68113389 37.8258278,9.68113389 L35.7362578,9.68113389 C34.6862145,9.68113389 33.9427709,9.82227005 33.5091629,10.0997034 C33.0755549,10.3811692 32.8603688,10.8505478 32.8603688,11.5054195 L32.8603688,11.5594545 Z M54.0837015,20.4373221 L49.0171213,20.4373221 L49.0171213,6.48177883 L54.0837015,6.48177883 L54.0837015,8.64317827 C54.6629242,7.77861849 55.4071767,7.16891029 56.3107964,6.81002121 C57.2144161,6.45032563 58.5791488,6.26805836 60.4090394,6.26805836 C62.7000429,6.26805836 64.4158687,6.69630579 65.5621794,7.5471552 C66.7076812,8.40203706 67.282859,9.67629494 67.282859,11.3731548 L67.282859,20.4373221 L62.2300313,20.4373221 L62.2300313,13.3748687 C62.2300313,12.1288381 61.9468917,11.3142809 61.3854664,10.9231321 C60.8240411,10.5319833 59.7513466,10.3360057 58.1641471,10.3360057 C56.6942483,10.3360057 55.644205,10.5908572 55.0188711,11.1005604 C54.3943461,11.614296 54.0837015,12.4699844 54.0837015,13.666819 L54.0837015,20.4373221 Z M78.9530629,16.8379468 L81.3346711,16.8379468 C82.5489353,16.8379468 83.398354,16.6476146 83.8910169,16.2693697 C84.3788259,15.8919313 84.6255618,15.2499634 84.6255618,14.345079 L84.6255618,12.4925661 C84.6255618,11.5957467 84.374781,10.9594242 83.8772644,10.5811793 C83.3748939,10.2037409 82.531138,10.0134087 81.3346711,10.0134087 L78.9530629,10.0134087 C77.6926873,10.0134087 76.8254713,10.1997085 76.3514148,10.5723079 C75.8716954,10.9457139 75.6346672,11.614296 75.6346672,12.5699894 L75.6346672,14.3724998 C75.6346672,15.2596413 75.8854479,15.8919313 76.3926722,16.2693697 C76.8942338,16.6476146 77.7476973,16.8379468 78.9530629,16.8379468 Z M77.6150262,20.6236218 C75.0829495,20.6236218 73.279755,20.2236016 72.1973529,19.4227547 C71.1206136,18.6267468 70.5826484,17.3065188 70.5826484,15.4636839 L70.5826484,11.6505882 C70.5826484,9.65371315 71.1068611,8.24799703 72.1617582,7.43263328 C73.2109925,6.61888253 75.0230857,6.21402338 77.5883302,6.21402338 L82.6856513,6.21402338 C85.1732346,6.21402338 86.9626766,6.62372148 88.0531684,7.44715015 C89.1436603,8.26977232 89.6913331,9.61258204 89.6913331,11.4779988 L89.6913331,15.3862606 C89.6913331,17.2790981 89.1622666,18.6267468 88.0992797,19.4227547 C87.0403378,20.2236016 85.2330984,20.6236218 82.6856513,20.6236218 L77.6150262,20.6236218 Z M104.451803,20.4373221 L98.0714552,20.4373221 L91.3068465,6.40032311 L97.0036145,6.40032311 L101.229675,16.2379165 L105.602159,6.40032311 L111.215603,6.40032311 L104.451803,20.4373221 Z M118.399258,20.4373221 L113.333487,20.4373221 L113.333487,6.40032311 L118.399258,6.40032311 L118.399258,20.4373221 Z M131.424487,12.3603014 L139.074109,12.3603014 L135.208849,5.33494674 L131.424487,12.3603014 Z M127.184674,20.4373221 L120.553546,20.4373221 L131.424487,0.589545891 L139.179275,0.589545891 L149.849592,20.4373221 L143.177206,20.4373221 L141.251857,17.1339295 L129.124585,17.1339295 L127.184674,20.4373221 Z"></path>
                        </g>
                    </g>
                </g>
                <g id="bouwt-•-herstelt-•-o" transform="translate(7.332942, 68.402075)" fill-rule="nonzero">
                    <path d="M2.74209709,7.72113208 C3.41889968,7.72113208 4.01022977,7.47071698 4.51608738,6.96988679 C5.02194498,6.4690566 5.27487379,5.79780503 5.27487379,4.95613208 C5.27487379,4.11445912 5.02194498,3.44320755 4.51608738,2.94237736 C4.01022977,2.44154717 3.41889968,2.19113208 2.74209709,2.19113208 C2.0652945,2.19113208 1.47919741,2.44850314 0.983805825,2.96324528 L0.983805825,2.96324528 L0.952407767,2.96324528 L0.952407767,5.29555435e-15 L-1.85913852e-14,5.29555435e-15 L-1.85913852e-14,7.61679245 L0.837281553,7.61679245 L0.952407767,6.94901887 L0.983805825,6.94901887 C1.47919741,7.46376101 2.0652945,7.72113208 2.74209709,7.72113208 Z M2.60603883,6.83424528 C1.97807767,6.83424528 1.42686731,6.57339623 0.952407767,6.05169811 L0.952407767,6.05169811 L0.952407767,3.86056604 C1.42686731,3.33886792 1.97807767,3.07801887 2.60603883,3.07801887 C3.12236246,3.07801887 3.53751456,3.24148428 3.85149515,3.56841509 C4.16547573,3.89534591 4.32246602,4.35791824 4.32246602,4.95613208 C4.32246602,5.55434591 4.16547573,6.01691824 3.85149515,6.34384906 C3.53751456,6.67077987 3.12236246,6.83424528 2.60603883,6.83424528 Z M9.30254693,7.72113208 C10.1084304,7.72113208 10.7573236,7.46723899 11.2492265,6.95945283 C11.7411294,6.45166667 11.9870809,5.78389308 11.9870809,4.95613208 C11.9870809,4.12837107 11.7411294,3.46059748 11.2492265,2.95281132 C10.7573236,2.44502516 10.1084304,2.19113208 9.30254693,2.19113208 C8.49666343,2.19113208 7.84951456,2.44502516 7.36110032,2.95281132 C6.87268608,3.46059748 6.62847896,4.12837107 6.62847896,4.95613208 C6.62847896,5.78389308 6.87268608,6.45166667 7.36110032,6.95945283 C7.84951456,7.46723899 8.49666343,7.72113208 9.30254693,7.72113208 Z M9.30777994,6.85511321 C8.84727508,6.85511321 8.442589,6.69860377 8.09372168,6.38558491 C7.75183172,6.06561006 7.58088673,5.58738679 7.58088673,4.95091509 C7.58088673,4.3144434 7.75357605,3.83969811 8.09895469,3.52667925 C8.44433333,3.21366038 8.84727508,3.05715094 9.30777994,3.05715094 C9.76828479,3.05715094 10.1712265,3.21366038 10.5166052,3.52667925 C10.8619838,3.83969811 11.0346731,4.3144434 11.0346731,4.95091509 C11.0346731,5.58738679 10.8619838,6.06387107 10.5166052,6.38036792 C10.1712265,6.69686478 9.76828479,6.85511321 9.30777994,6.85511321 Z M15.4966861,7.72113208 C16.2153528,7.72113208 16.8572686,7.41159119 17.4224337,6.79250943 L17.4224337,6.79250943 L17.4433657,6.79250943 L17.4433657,6.94901887 L17.5584919,7.61679245 L18.3957735,7.61679245 L18.3957735,2.2954717 L17.4433657,2.2954717 L17.4433657,5.84301887 C16.90611,6.51079245 16.3339676,6.84467925 15.7269385,6.84467925 C14.9594304,6.84467925 14.5756764,6.42036478 14.5756764,5.57173585 L14.5756764,5.57173585 L14.5756764,2.2954717 L13.6232686,2.2954717 L13.6232686,5.67607547 C13.6232686,6.26037736 13.7907249,6.7472956 14.1256375,7.13683019 C14.4605502,7.52636478 14.9175663,7.72113208 15.4966861,7.72113208 Z M22.4496117,7.61679245 L23.6636699,3.80839623 L23.695068,3.80839623 L24.9091262,7.61679245 L25.8406019,7.61679245 L27.6721553,2.2954717 L26.6674175,2.2954717 L25.4010291,6.4690566 L25.3696311,6.4690566 L24.0718447,2.2954717 L23.2868932,2.2954717 L21.9891068,6.4690566 L21.9577087,6.4690566 L20.6913204,2.2954717 L19.6865825,2.2954717 L21.5181359,7.61679245 L22.4496117,7.61679245 Z M30.8363819,7.72113208 C31.1712945,7.72113208 31.4852751,7.64461635 31.7783236,7.49158491 L31.7783236,7.49158491 L31.7783236,6.7194717 L31.7050615,6.7194717 C31.453877,6.8307673 31.2236246,6.88641509 31.0143042,6.88641509 C30.8049838,6.88641509 30.6340388,6.85859119 30.5014693,6.8029434 C30.3409903,6.73338365 30.2607508,6.5525283 30.2607508,6.26037736 L30.2607508,6.26037736 L30.2607508,3.10932075 L31.7783236,3.10932075 L31.7783236,2.2954717 L30.2607508,2.2954717 L30.2607508,1.14773585 L28.3140712,3.04671698 L28.3140712,3.10932075 L29.308343,3.10932075 L29.308343,6.34384906 C29.308343,7.26203774 29.8176893,7.72113208 30.8363819,7.72113208 Z" id="bouwt" fill="#FFFFFF"></path>
                    <path d="M37.5520777,4.90396226 C37.9358317,4.90396226 38.2620227,4.76832075 38.5306505,4.49703774 C38.7992783,4.22575472 38.9335922,3.8988239 38.9335922,3.51624528 C38.9335922,3.13366667 38.7992783,2.80673585 38.5306505,2.53545283 C38.2620227,2.26416981 37.9358317,2.1285283 37.5520777,2.1285283 C37.1683236,2.1285283 36.8403883,2.26416981 36.5682718,2.53545283 C36.2961553,2.80673585 36.1600971,3.13366667 36.1600971,3.51624528 C36.1600971,3.8988239 36.2961553,4.22575472 36.5682718,4.49703774 C36.8403883,4.76832075 37.1683236,4.90396226 37.5520777,4.90396226 Z" id="•" fill="#99C221"></path>
                    <path d="M44.7178123,7.61679245 L44.7178123,4.06924528 C45.255068,3.4014717 45.8272104,3.06758491 46.4342395,3.06758491 C47.2017476,3.06758491 47.5855016,3.49189937 47.5855016,4.3405283 L47.5855016,4.3405283 L47.5855016,7.61679245 L48.5379094,7.61679245 L48.5379094,4.23618868 C48.5379094,3.65188679 48.3704531,3.16496855 48.0355405,2.77543396 C47.7006278,2.38589937 47.2436117,2.19113208 46.6644919,2.19113208 C45.9528026,2.19113208 45.3143754,2.50067296 44.7492104,3.11975472 L44.7492104,3.11975472 L44.7178123,3.11975472 L44.7178123,5.29555435e-15 L43.7654045,5.29555435e-15 L43.7654045,7.61679245 L44.7178123,7.61679245 Z M52.795835,7.72113208 C53.5877638,7.72113208 54.2767767,7.55766667 54.8628738,7.23073585 L54.8628738,7.23073585 L54.8628738,6.31254717 L54.8105437,6.31254717 C54.2802654,6.66034591 53.70289,6.83424528 53.0784175,6.83424528 C52.453945,6.83424528 51.9882071,6.69860377 51.6812039,6.42732075 C51.3742006,6.15603774 51.1927896,5.77693711 51.1369709,5.29001887 L51.1369709,5.29001887 L55.1768544,5.29001887 L55.1768544,4.95613208 C55.1768544,4.18401887 54.9640453,3.53015723 54.5384272,2.99454717 C54.1128091,2.45893711 53.4918252,2.19113208 52.6754757,2.19113208 C51.8591262,2.19113208 51.2381424,2.45893711 50.8125243,2.99454717 C50.3869061,3.53015723 50.1740971,4.21010377 50.1740971,5.03438679 C50.1740971,5.85866981 50.4130712,6.51253145 50.8910194,6.9959717 C51.3689676,7.47941195 52.0039061,7.72113208 52.795835,7.72113208 Z M54.2244466,4.51790566 L51.1369709,4.51790566 C51.1648803,4.01707547 51.3323366,3.63797484 51.6393398,3.38060377 C51.946343,3.1232327 52.2917217,2.99454717 52.6754757,2.99454717 C53.0592298,2.99454717 53.4063528,3.1232327 53.7168447,3.38060377 C54.0273366,3.63797484 54.1965372,4.01707547 54.2244466,4.51790566 L54.2244466,4.51790566 Z M57.7549838,7.61679245 L57.7549838,4.00664151 C57.9573269,3.72144654 58.2364207,3.49885535 58.5922654,3.33886792 C58.94811,3.1788805 59.3318641,3.09888679 59.7435275,3.09888679 L59.7435275,3.09888679 L59.8272557,3.09888679 L59.8272557,2.19113208 L59.7435275,2.19113208 C58.9341553,2.19113208 58.2782848,2.50067296 57.7759159,3.11975472 L57.7759159,3.11975472 L57.7549838,3.11975472 L57.7549838,2.96324528 L57.6398576,2.2954717 L56.8025761,2.2954717 L56.8025761,7.61679245 L57.7549838,7.61679245 Z M62.881589,7.72113208 C63.575835,7.72113208 64.0991359,7.5750566 64.4514919,7.28290566 C64.8038479,6.99075472 64.9800259,6.63947799 64.9800259,6.22907547 C64.9800259,5.81867296 64.871877,5.49522013 64.6555793,5.25871698 C64.4392816,5.02221384 64.1776311,4.85527044 63.8706278,4.75788679 C63.5636246,4.66050314 63.254877,4.57877044 62.9443851,4.51268868 C62.6338932,4.44660692 62.3704984,4.35791824 62.1542006,4.24662264 C61.9379029,4.13532704 61.829754,3.97707862 61.829754,3.77187736 C61.829754,3.5666761 61.9361586,3.39625472 62.1489676,3.26061321 C62.3617767,3.1249717 62.6914563,3.05715094 63.1380065,3.05715094 C63.5845566,3.05715094 64.0415728,3.15453459 64.509055,3.34930189 L64.509055,3.34930189 L64.5823172,3.34930189 L64.5823172,2.48328302 C64.0590162,2.28851572 63.4938511,2.19113208 62.886822,2.19113208 C62.2797929,2.19113208 61.8001003,2.34416352 61.4477443,2.65022642 C61.0953883,2.95628931 60.9192104,3.35277987 60.9192104,3.83969811 C60.9192104,4.19445283 61.0273592,4.48660377 61.243657,4.71615094 C61.4599547,4.94569811 61.7216052,5.10916352 62.0286084,5.20654717 C62.3356117,5.30393082 62.6426149,5.38740252 62.9496181,5.45696226 L63.1713669,5.51206663 C63.3846121,5.57010554 63.5723463,5.63694811 63.7345696,5.71259434 C63.9508673,5.81345597 64.0590162,5.9438805 64.0590162,6.10386792 C64.0590162,6.59774214 63.6717735,6.84467925 62.897288,6.84467925 C62.2204854,6.84467925 61.5995016,6.67773585 61.0343366,6.34384906 L61.0343366,6.34384906 L60.9820065,6.34384906 L60.9820065,7.25160377 C61.5541489,7.56462264 62.187343,7.72113208 62.881589,7.72113208 Z M68.447767,7.72113208 C68.7826796,7.72113208 69.0966602,7.64461635 69.3897087,7.49158491 L69.3897087,7.49158491 L69.3897087,6.7194717 L69.3164466,6.7194717 C69.0652621,6.8307673 68.8350097,6.88641509 68.6256893,6.88641509 C68.4163689,6.88641509 68.2454239,6.85859119 68.1128544,6.8029434 C67.9523754,6.73338365 67.8721359,6.5525283 67.8721359,6.26037736 L67.8721359,6.26037736 L67.8721359,3.10932075 L69.3897087,3.10932075 L69.3897087,2.2954717 L67.8721359,2.2954717 L67.8721359,1.14773585 L65.9254563,3.04671698 L65.9254563,3.10932075 L66.9197282,3.10932075 L66.9197282,6.34384906 C66.9197282,7.26203774 67.4290744,7.72113208 68.447767,7.72113208 Z M73.2499256,7.72113208 C74.0418544,7.72113208 74.7308673,7.55766667 75.3169644,7.23073585 L75.3169644,7.23073585 L75.3169644,6.31254717 L75.2646343,6.31254717 C74.734356,6.66034591 74.1569806,6.83424528 73.5325081,6.83424528 C72.9080356,6.83424528 72.4422977,6.69860377 72.1352945,6.42732075 C71.8282913,6.15603774 71.6468803,5.77693711 71.5910615,5.29001887 L71.5910615,5.29001887 L75.630945,5.29001887 L75.630945,4.95613208 C75.630945,4.18401887 75.4181359,3.53015723 74.9925178,2.99454717 C74.5668997,2.45893711 73.9459159,2.19113208 73.1295663,2.19113208 C72.3132168,2.19113208 71.692233,2.45893711 71.2666149,2.99454717 C70.8409968,3.53015723 70.6281877,4.21010377 70.6281877,5.03438679 C70.6281877,5.85866981 70.8671618,6.51253145 71.34511,6.9959717 C71.8230583,7.47941195 72.4579968,7.72113208 73.2499256,7.72113208 Z M74.6785372,4.51790566 L71.5910615,4.51790566 C71.6189709,4.01707547 71.7864272,3.63797484 72.0934304,3.38060377 C72.4004337,3.1232327 72.7458123,2.99454717 73.1295663,2.99454717 C73.5133204,2.99454717 73.8604434,3.1232327 74.1709353,3.38060377 C74.4814272,3.63797484 74.6506278,4.01707547 74.6785372,4.51790566 L74.6785372,4.51790566 Z M78.2928026,7.61679245 L78.2928026,5.29555435e-15 L77.3403948,5.29555435e-15 L77.3403948,7.61679245 L78.2928026,7.61679245 Z M82.2524466,7.72113208 C82.5873592,7.72113208 82.9013398,7.64461635 83.1943883,7.49158491 L83.1943883,7.49158491 L83.1943883,6.7194717 L83.1211262,6.7194717 C82.8699417,6.8307673 82.6396893,6.88641509 82.4303689,6.88641509 C82.2210485,6.88641509 82.0501036,6.85859119 81.917534,6.8029434 C81.757055,6.73338365 81.6768155,6.5525283 81.6768155,6.26037736 L81.6768155,6.26037736 L81.6768155,3.10932075 L83.1943883,3.10932075 L83.1943883,2.2954717 L81.6768155,2.2954717 L81.6768155,1.14773585 L79.7301359,3.04671698 L79.7301359,3.10932075 L80.7244078,3.10932075 L80.7244078,6.34384906 C80.7244078,7.26203774 81.233754,7.72113208 82.2524466,7.72113208 Z" id="herstelt" fill="#FFFFFF"></path>
                    <path d="M88.9681424,4.90396226 C89.3518964,4.90396226 89.6780874,4.76832075 89.9467152,4.49703774 C90.215343,4.22575472 90.349657,3.8988239 90.349657,3.51624528 C90.349657,3.13366667 90.215343,2.80673585 89.9467152,2.53545283 C89.6780874,2.26416981 89.3518964,2.1285283 88.9681424,2.1285283 C88.5843883,2.1285283 88.2564531,2.26416981 87.9843366,2.53545283 C87.7122201,2.80673585 87.5761618,3.13366667 87.5761618,3.51624528 C87.5761618,3.8988239 87.7122201,4.22575472 87.9843366,4.49703774 C88.2564531,4.76832075 88.5843883,4.90396226 88.9681424,4.90396226 Z" id="•" fill="#99C221"></path>
                    <path d="M97.5310906,7.72113208 C98.3369741,7.72113208 98.9858673,7.46723899 99.4777702,6.95945283 C99.9696731,6.45166667 100.215625,5.78389308 100.215625,4.95613208 C100.215625,4.12837107 99.9696731,3.46059748 99.4777702,2.95281132 C98.9858673,2.44502516 98.3369741,2.19113208 97.5310906,2.19113208 C96.7252071,2.19113208 96.0780583,2.44502516 95.589644,2.95281132 C95.1012298,3.46059748 94.8570227,4.12837107 94.8570227,4.95613208 C94.8570227,5.78389308 95.1012298,6.45166667 95.589644,6.95945283 C96.0780583,7.46723899 96.7252071,7.72113208 97.5310906,7.72113208 Z M97.5363236,6.85511321 C97.0758188,6.85511321 96.6711327,6.69860377 96.3222654,6.38558491 C95.9803754,6.06561006 95.8094304,5.58738679 95.8094304,4.95091509 C95.8094304,4.3144434 95.9821197,3.83969811 96.3274984,3.52667925 C96.672877,3.21366038 97.0758188,3.05715094 97.5363236,3.05715094 C97.9968285,3.05715094 98.3997702,3.21366038 98.7451489,3.52667925 C99.0905275,3.83969811 99.2632168,4.3144434 99.2632168,4.95091509 C99.2632168,5.58738679 99.0905275,6.06387107 98.7451489,6.38036792 C98.3997702,6.69686478 97.9968285,6.85511321 97.5363236,6.85511321 Z M102.846084,7.61679245 L102.846084,4.06924528 C103.38334,3.4014717 103.955482,3.06758491 104.562511,3.06758491 C105.330019,3.06758491 105.713773,3.49189937 105.713773,4.3405283 L105.713773,4.3405283 L105.713773,7.61679245 L106.666181,7.61679245 L106.666181,4.23618868 C106.666181,3.65188679 106.498725,3.16496855 106.163812,2.77543396 C105.8289,2.38589937 105.371883,2.19113208 104.792764,2.19113208 C104.074097,2.19113208 103.432181,2.50067296 102.867016,3.11975472 L102.867016,3.11975472 L102.846084,3.11975472 L102.846084,2.96324528 L102.730958,2.2954717 L101.893676,2.2954717 L101.893676,7.61679245 L102.846084,7.61679245 Z M110.489767,7.72113208 C110.82468,7.72113208 111.13866,7.64461635 111.431709,7.49158491 L111.431709,7.49158491 L111.431709,6.7194717 L111.358447,6.7194717 C111.107262,6.8307673 110.87701,6.88641509 110.667689,6.88641509 C110.458369,6.88641509 110.287424,6.85859119 110.154854,6.8029434 C109.994375,6.73338365 109.914136,6.5525283 109.914136,6.26037736 L109.914136,6.26037736 L109.914136,3.10932075 L111.431709,3.10932075 L111.431709,2.2954717 L109.914136,2.2954717 L109.914136,1.14773585 L107.967456,3.04671698 L107.967456,3.10932075 L108.961728,3.10932075 L108.961728,6.34384906 C108.961728,7.26203774 109.471074,7.72113208 110.489767,7.72113208 Z M116.846129,7.61679245 L116.846129,6.72990566 L113.82145,6.72990566 L113.82145,6.69860377 L116.846129,3.18235849 L116.846129,2.2954717 L112.732984,2.2954717 L112.732984,3.18235849 L115.705333,3.18235849 L115.705333,3.22409434 L112.63879,6.74033962 L112.63879,7.61679245 L116.846129,7.61679245 Z M120.905201,7.72113208 C121.711084,7.72113208 122.359977,7.46723899 122.85188,6.95945283 C123.343783,6.45166667 123.589735,5.78389308 123.589735,4.95613208 C123.589735,4.12837107 123.343783,3.46059748 122.85188,2.95281132 C122.359977,2.44502516 121.711084,2.19113208 120.905201,2.19113208 C120.099317,2.19113208 119.452168,2.44502516 118.963754,2.95281132 C118.47534,3.46059748 118.231133,4.12837107 118.231133,4.95613208 C118.231133,5.78389308 118.47534,6.45166667 118.963754,6.95945283 C119.452168,7.46723899 120.099317,7.72113208 120.905201,7.72113208 Z M120.910434,6.85511321 C120.449929,6.85511321 120.045243,6.69860377 119.696375,6.38558491 C119.354485,6.06561006 119.18354,5.58738679 119.18354,4.95091509 C119.18354,4.3144434 119.35623,3.83969811 119.701608,3.52667925 C120.046987,3.21366038 120.449929,3.05715094 120.910434,3.05715094 C121.370939,3.05715094 121.77388,3.21366038 122.119259,3.52667925 C122.464638,3.83969811 122.637327,4.3144434 122.637327,4.95091509 C122.637327,5.58738679 122.464638,6.06387107 122.119259,6.38036792 C121.77388,6.69686478 121.370939,6.85511321 120.910434,6.85511321 Z M126.220194,7.61679245 L126.220194,4.00664151 C126.422537,3.72144654 126.701631,3.49885535 127.057476,3.33886792 C127.41332,3.1788805 127.797074,3.09888679 128.208738,3.09888679 L128.208738,3.09888679 L128.292466,3.09888679 L128.292466,2.19113208 L128.208738,2.19113208 C127.399366,2.19113208 126.743495,2.50067296 126.241126,3.11975472 L126.241126,3.11975472 L126.220194,3.11975472 L126.220194,2.96324528 L126.105068,2.2954717 L125.267786,2.2954717 L125.267786,7.61679245 L126.220194,7.61679245 Z M132.131751,10.1209434 C132.937634,10.1209434 133.553385,9.88444025 133.979003,9.41143396 C134.404621,8.93842767 134.61743,8.26369811 134.61743,7.38724528 L134.61743,7.38724528 L134.61743,2.2954717 L133.780149,2.2954717 L133.665023,2.96324528 L133.633625,2.96324528 C133.152188,2.44850314 132.576557,2.19113208 131.906731,2.19113208 C131.236906,2.19113208 130.642087,2.42937421 130.122275,2.90585849 C129.602463,3.38234277 129.342557,4.04837736 129.342557,4.90396226 C129.342557,5.75954717 129.602463,6.42558176 130.122275,6.90206604 C130.642087,7.37855031 131.236906,7.61679245 131.906731,7.61679245 C132.576557,7.61679245 133.152188,7.35942138 133.633625,6.84467925 L133.633625,6.84467925 L133.665023,6.84467925 L133.665023,7.52288679 C133.665023,8.65671069 133.131256,9.22362264 132.063722,9.22362264 C131.268304,9.22362264 130.574058,9.03233333 129.980984,8.64975472 L129.980984,8.64975472 L129.928654,8.64975472 L129.928654,9.58881132 C130.591502,9.94356604 131.325867,10.1209434 132.131751,10.1209434 Z M132.100353,6.75077358 C131.559608,6.75077358 131.123524,6.59252516 130.7921,6.2760283 C130.460676,5.95953145 130.294964,5.5021761 130.294964,4.90396226 C130.294964,4.30574843 130.460676,3.84839308 130.7921,3.53189623 C131.123524,3.21539937 131.559608,3.05715094 132.100353,3.05715094 C132.641097,3.05715094 133.162654,3.31452201 133.665023,3.82926415 L133.665023,3.82926415 L133.665023,5.97866038 C133.162654,6.49340252 132.641097,6.75077358 132.100353,6.75077358 Z M138.493346,7.72113208 C138.828259,7.72113208 139.142239,7.64461635 139.435288,7.49158491 L139.435288,7.49158491 L139.435288,6.7194717 L139.362026,6.7194717 C139.110841,6.8307673 138.880589,6.88641509 138.671269,6.88641509 C138.461948,6.88641509 138.291003,6.85859119 138.158434,6.8029434 C137.997955,6.73338365 137.917715,6.5525283 137.917715,6.26037736 L137.917715,6.26037736 L137.917715,3.10932075 L139.435288,3.10932075 L139.435288,2.2954717 L137.917715,2.2954717 L137.917715,1.14773585 L135.971036,3.04671698 L135.971036,3.10932075 L136.965307,3.10932075 L136.965307,6.34384906 C136.965307,7.26203774 137.474654,7.72113208 138.493346,7.72113208 Z" id="ontzorgt" fill="#FFFFFF"></path>
                </g>
            </g>
        </g>
    </g>
</svg>